<?xml version="1.0" encoding="UTF-8" standalone="no"?>
<!DOCTYPE svg PUBLIC "-//W3C//DTD SVG 1.1//EN"
 "http://www.w3.org/Graphics/SVG/1.1/DTD/svg11.dtd">
<!-- Generated by graphviz version 2.38.0 (20140413.2041)
 -->
<!-- Title: models_diagram Pages: 1 -->
<svg width="841pt" height="626pt"
 viewBox="0.00 0.00 841.00 626.00" xmlns="http://www.w3.org/2000/svg" xmlns:xlink="http://www.w3.org/1999/xlink">
<g id="graph0" class="graph" transform="scale(1 1) rotate(0) translate(4 622)">
<title>models_diagram</title>
<polygon fill="none" stroke="none" points="-4,4 -4,-622 837,-622 837,4 -4,4"/>
<!-- _diagram_info -->
<g id="node1" class="node"><title>_diagram_info</title>
<text text-anchor="start" x="8" y="-521.6" font-family="Times,serif" font-size="13.00">Models diagram</text>
<text text-anchor="start" x="8" y="-507.6" font-family="Times,serif" font-size="13.00">Date: Mar 06 2018 &#45; 12:20</text>
<text text-anchor="start" x="8" y="-493.6" font-family="Times,serif" font-size="13.00">Migration version: 20180306151053</text>
<text text-anchor="start" x="8" y="-479.6" font-family="Times,serif" font-size="13.00">Generated by RailRoady 1.5.3</text>
<text text-anchor="start" x="8" y="-465.6" font-family="Times,serif" font-size="13.00">http://railroady.prestonlee.com</text>
</g>
<!-- ApplicationRecord -->
<g id="node2" class="node"><title>ApplicationRecord</title>
<ellipse fill="none" stroke="black" cx="309" cy="-497" rx="77.1866" ry="18"/>
<text text-anchor="middle" x="309" y="-493.3" font-family="Times,serif" font-size="14.00">ApplicationRecord</text>
</g>
<!-- Billing -->
<g id="node3" class="node"><title>Billing</title>
<path fill="none" stroke="black" d="M301,-188.5C301,-188.5 521,-188.5 521,-188.5 527,-188.5 533,-194.5 533,-200.5 533,-200.5 533,-327.5 533,-327.5 533,-333.5 527,-339.5 521,-339.5 521,-339.5 301,-339.5 301,-339.5 295,-339.5 289,-333.5 289,-327.5 289,-327.5 289,-200.5 289,-200.5 289,-194.5 295,-188.5 301,-188.5"/>
<text text-anchor="middle" x="411" y="-324.3" font-family="Times,serif" font-size="14.00">Billing</text>
<polyline fill="none" stroke="black" points="289,-316.5 533,-316.5 "/>
<text text-anchor="start" x="297" y="-301.3" font-family="Times,serif" font-size="14.00">id :bigint</text>
<text text-anchor="start" x="297" y="-286.3" font-family="Times,serif" font-size="14.00">code :character varying</text>
<text text-anchor="start" x="297" y="-271.3" font-family="Times,serif" font-size="14.00">payment_method :character varying</text>
<text text-anchor="start" x="297" y="-256.3" font-family="Times,serif" font-size="14.00">amount :numeric(5,2)</text>
<text text-anchor="start" x="297" y="-241.3" font-family="Times,serif" font-size="14.00">currency :character varying</text>
<text text-anchor="start" x="297" y="-226.3" font-family="Times,serif" font-size="14.00">user_id :bigint</text>
<text text-anchor="start" x="297" y="-211.3" font-family="Times,serif" font-size="14.00">created_at :timestamp without time zone</text>
<text text-anchor="start" x="297" y="-196.3" font-family="Times,serif" font-size="14.00">updated_at :timestamp without time zone</text>
</g>
<!-- Order -->
<g id="node4" class="node"><title>Order</title>
<path fill="none" stroke="black" d="M451,-0.5C451,-0.5 671,-0.5 671,-0.5 677,-0.5 683,-6.5 683,-12.5 683,-12.5 683,-139.5 683,-139.5 683,-145.5 677,-151.5 671,-151.5 671,-151.5 451,-151.5 451,-151.5 445,-151.5 439,-145.5 439,-139.5 439,-139.5 439,-12.5 439,-12.5 439,-6.5 445,-0.5 451,-0.5"/>
<text text-anchor="middle" x="561" y="-136.3" font-family="Times,serif" font-size="14.00">Order</text>
<polyline fill="none" stroke="black" points="439,-128.5 683,-128.5 "/>
<text text-anchor="start" x="447" y="-113.3" font-family="Times,serif" font-size="14.00">id :bigint</text>
<text text-anchor="start" x="447" y="-98.3" font-family="Times,serif" font-size="14.00">payed :boolean</text>
<text text-anchor="start" x="447" y="-83.3" font-family="Times,serif" font-size="14.00">user_id :bigint</text>
<text text-anchor="start" x="447" y="-68.3" font-family="Times,serif" font-size="14.00">product_id :bigint</text>
<text text-anchor="start" x="447" y="-53.3" font-family="Times,serif" font-size="14.00">created_at :timestamp without time zone</text>
<text text-anchor="start" x="447" y="-38.3" font-family="Times,serif" font-size="14.00">updated_at :timestamp without time zone</text>
<text text-anchor="start" x="447" y="-23.3" font-family="Times,serif" font-size="14.00">quantity :integer</text>
<text text-anchor="start" x="447" y="-8.3" font-family="Times,serif" font-size="14.00">billing_id :bigint</text>
</g>
<!-- Billing&#45;&gt;Order -->
<g id="edge1" class="edge"><title>Billing&#45;&gt;Order</title>
<path fill="none" stroke="#772484" d="M476.217,-182.131C482.226,-174.68 488.32,-167.123 494.342,-159.656"/>
<ellipse fill="none" stroke="#772484" cx="473.657" cy="-185.305" rx="4.00002" ry="4.00002"/>
<polygon fill="#772484" stroke="#772484" points="494.563,-159.382 504.343,-154.423 497.701,-155.49 500.84,-151.598 500.84,-151.598 500.84,-151.598 497.701,-155.49 497.337,-148.773 494.563,-159.382 494.563,-159.382"/>
</g>
<!-- User -->
<g id="node5" class="node"><title>User</title>
<path fill="none" stroke="black" d="M416.5,-376.5C416.5,-376.5 705.5,-376.5 705.5,-376.5 711.5,-376.5 717.5,-382.5 717.5,-388.5 717.5,-388.5 717.5,-605.5 717.5,-605.5 717.5,-611.5 711.5,-617.5 705.5,-617.5 705.5,-617.5 416.5,-617.5 416.5,-617.5 410.5,-617.5 404.5,-611.5 404.5,-605.5 404.5,-605.5 404.5,-388.5 404.5,-388.5 404.5,-382.5 410.5,-376.5 416.5,-376.5"/>
<text text-anchor="middle" x="561" y="-602.3" font-family="Times,serif" font-size="14.00">User</text>
<polyline fill="none" stroke="black" points="404.5,-594.5 717.5,-594.5 "/>
<text text-anchor="start" x="412.5" y="-579.3" font-family="Times,serif" font-size="14.00">id :bigint</text>
<text text-anchor="start" x="412.5" y="-564.3" font-family="Times,serif" font-size="14.00">email :character varying</text>
<text text-anchor="start" x="412.5" y="-549.3" font-family="Times,serif" font-size="14.00">encrypted_password :character varying</text>
<text text-anchor="start" x="412.5" y="-534.3" font-family="Times,serif" font-size="14.00">reset_password_token :character varying</text>
<text text-anchor="start" x="412.5" y="-519.3" font-family="Times,serif" font-size="14.00">reset_password_sent_at :timestamp without time zone</text>
<text text-anchor="start" x="412.5" y="-504.3" font-family="Times,serif" font-size="14.00">remember_created_at :timestamp without time zone</text>
<text text-anchor="start" x="412.5" y="-489.3" font-family="Times,serif" font-size="14.00">sign_in_count :integer</text>
<text text-anchor="start" x="412.5" y="-474.3" font-family="Times,serif" font-size="14.00">current_sign_in_at :timestamp without time zone</text>
<text text-anchor="start" x="412.5" y="-459.3" font-family="Times,serif" font-size="14.00">last_sign_in_at :timestamp without time zone</text>
<text text-anchor="start" x="412.5" y="-444.3" font-family="Times,serif" font-size="14.00">current_sign_in_ip :inet</text>
<text text-anchor="start" x="412.5" y="-429.3" font-family="Times,serif" font-size="14.00">last_sign_in_ip :inet</text>
<text text-anchor="start" x="412.5" y="-414.3" font-family="Times,serif" font-size="14.00">name :character varying</text>
<text text-anchor="start" x="412.5" y="-399.3" font-family="Times,serif" font-size="14.00">created_at :timestamp without time zone</text>
<text text-anchor="start" x="412.5" y="-384.3" font-family="Times,serif" font-size="14.00">updated_at :timestamp without time zone</text>
</g>
<!-- User&#45;&gt;Billing -->
<g id="edge4" class="edge"><title>User&#45;&gt;Billing</title>
<path fill="none" stroke="#e775c9" d="M478.977,-369.685C474.292,-362.47 469.645,-355.313 465.108,-348.326"/>
<ellipse fill="none" stroke="#e775c9" cx="481.185" cy="-373.085" rx="4.00002" ry="4.00002"/>
<polygon fill="#e775c9" stroke="#e775c9" points="464.872,-347.962 463.2,-337.125 462.149,-343.769 459.426,-339.575 459.426,-339.575 459.426,-339.575 462.149,-343.769 455.652,-342.026 464.872,-347.962 464.872,-347.962"/>
</g>
<!-- User&#45;&gt;Order -->
<g id="edge2" class="edge"><title>User&#45;&gt;Order</title>
<path fill="none" stroke="#bdb1b3" d="M561,-368.356C561,-301.274 561,-220.906 561,-161.586"/>
<ellipse fill="none" stroke="#bdb1b3" cx="561" cy="-372.492" rx="4" ry="4"/>
<polygon fill="#bdb1b3" stroke="#bdb1b3" points="561,-161.508 565.5,-151.508 561,-156.508 561,-151.508 561,-151.508 561,-151.508 561,-156.508 556.5,-151.508 561,-161.508 561,-161.508"/>
</g>
<!-- Product -->
<g id="node6" class="node"><title>Product</title>
<path fill="none" stroke="black" d="M601,-203.5C601,-203.5 821,-203.5 821,-203.5 827,-203.5 833,-209.5 833,-215.5 833,-215.5 833,-312.5 833,-312.5 833,-318.5 827,-324.5 821,-324.5 821,-324.5 601,-324.5 601,-324.5 595,-324.5 589,-318.5 589,-312.5 589,-312.5 589,-215.5 589,-215.5 589,-209.5 595,-203.5 601,-203.5"/>
<text text-anchor="middle" x="711" y="-309.3" font-family="Times,serif" font-size="14.00">Product</text>
<polyline fill="none" stroke="black" points="589,-301.5 833,-301.5 "/>
<text text-anchor="start" x="597" y="-286.3" font-family="Times,serif" font-size="14.00">id :bigint</text>
<text text-anchor="start" x="597" y="-271.3" font-family="Times,serif" font-size="14.00">name :character varying</text>
<text text-anchor="start" x="597" y="-256.3" font-family="Times,serif" font-size="14.00">photo :character varying</text>
<text text-anchor="start" x="597" y="-241.3" font-family="Times,serif" font-size="14.00">price :integer</text>
<text text-anchor="start" x="597" y="-226.3" font-family="Times,serif" font-size="14.00">created_at :timestamp without time zone</text>
<text text-anchor="start" x="597" y="-211.3" font-family="Times,serif" font-size="14.00">updated_at :timestamp without time zone</text>
</g>
<!-- User&#45;&gt;Product -->
<g id="edge3" class="edge"><title>User&#45;&gt;Product</title>
<path fill="none" stroke="#8d6108" d="M644.088,-368.045C651.809,-356.153 659.416,-344.44 666.573,-333.417"/>
<polygon fill="#8d6108" stroke="#8d6108" points="644.082,-368.053 634.862,-373.989 641.359,-372.247 638.636,-376.44 638.636,-376.44 638.636,-376.44 641.359,-372.247 642.41,-378.891 644.082,-368.053 644.082,-368.053"/>
<polygon fill="#8d6108" stroke="#8d6108" points="666.765,-333.122 675.985,-327.185 669.488,-328.928 672.211,-324.735 672.211,-324.735 672.211,-324.735 669.488,-328.928 668.437,-322.284 666.765,-333.122 666.765,-333.122"/>
</g>
<!-- Product&#45;&gt;Order -->
<g id="edge5" class="edge"><title>Product&#45;&gt;Order</title>
<path fill="none" stroke="#f4655b" d="M657.882,-197.134C648.045,-184.936 637.658,-172.056 627.482,-159.438"/>
<ellipse fill="none" stroke="#f4655b" cx="660.409" cy="-200.267" rx="4.00002" ry="4.00002"/>
<polygon fill="#f4655b" stroke="#f4655b" points="627.458,-159.408 624.683,-148.799 624.319,-155.516 621.181,-151.624 621.181,-151.624 621.181,-151.624 624.319,-155.516 617.678,-154.449 627.458,-159.408 627.458,-159.408"/>
</g>
</g>
</svg>
