<?xml version="1.0" encoding="UTF-8" standalone="no"?>
<!DOCTYPE svg PUBLIC "-//W3C//DTD SVG 1.1//EN"
 "http://www.w3.org/Graphics/SVG/1.1/DTD/svg11.dtd">
<!-- Generated by graphviz version 2.38.0 (20140413.2041)
 -->
<!-- Title: models_diagram Pages: 1 -->
<svg width="544pt" height="230pt"
 viewBox="0.00 0.00 544.35 230.00" xmlns="http://www.w3.org/2000/svg" xmlns:xlink="http://www.w3.org/1999/xlink">
<g id="graph0" class="graph" transform="scale(1 1) rotate(0) translate(4 226)">
<title>models_diagram</title>
<polygon fill="none" stroke="none" points="-4,4 -4,-226 540.347,-226 540.347,4 -4,4"/>
<!-- _diagram_info -->
<g id="node1" class="node"><title>_diagram_info</title>
<text text-anchor="start" x="8" y="-207.6" font-family="Times,serif" font-size="13.00">Models diagram</text>
<text text-anchor="start" x="8" y="-193.6" font-family="Times,serif" font-size="13.00">Date: Mar 06 2018 &#45; 12:20</text>
<text text-anchor="start" x="8" y="-179.6" font-family="Times,serif" font-size="13.00">Migration version: 20180306151053</text>
<text text-anchor="start" x="8" y="-165.6" font-family="Times,serif" font-size="13.00">Generated by RailRoady 1.5.3</text>
<text text-anchor="start" x="8" y="-151.6" font-family="Times,serif" font-size="13.00">http://railroady.prestonlee.com</text>
</g>
<!-- ApplicationRecord -->
<g id="node2" class="node"><title>ApplicationRecord</title>
<ellipse fill="none" stroke="black" cx="309" cy="-183" rx="77.1866" ry="18"/>
<text text-anchor="middle" x="309" y="-179.3" font-family="Times,serif" font-size="14.00">ApplicationRecord</text>
</g>
<!-- Billing -->
<g id="node3" class="node"><title>Billing</title>
<ellipse fill="none" stroke="black" cx="369" cy="-90" rx="35.194" ry="18"/>
<text text-anchor="middle" x="369" y="-86.3" font-family="Times,serif" font-size="14.00">Billing</text>
</g>
<!-- Order -->
<g id="node4" class="node"><title>Order</title>
<ellipse fill="none" stroke="black" cx="432" cy="-18" rx="31.3957" ry="18"/>
<text text-anchor="middle" x="432" y="-14.3" font-family="Times,serif" font-size="14.00">Order</text>
</g>
<!-- Billing&#45;&gt;Order -->
<g id="edge1" class="edge"><title>Billing&#45;&gt;Order</title>
<path fill="none" stroke="#4adc71" d="M388.391,-67.4545C395.659,-59.3793 403.941,-50.1771 411.321,-41.9771"/>
<ellipse fill="none" stroke="#4adc71" cx="385.658" cy="-70.4915" rx="4.00002" ry="4.00002"/>
<polygon fill="#4adc71" stroke="#4adc71" points="411.368,-41.9248 421.402,-37.5022 414.713,-38.2083 418.057,-34.4918 418.057,-34.4918 418.057,-34.4918 414.713,-38.2083 414.713,-31.4815 411.368,-41.9248 411.368,-41.9248"/>
</g>
<!-- User -->
<g id="node5" class="node"><title>User</title>
<ellipse fill="none" stroke="black" cx="432" cy="-183" rx="27.0966" ry="18"/>
<text text-anchor="middle" x="432" y="-179.3" font-family="Times,serif" font-size="14.00">User</text>
</g>
<!-- User&#45;&gt;Billing -->
<g id="edge4" class="edge"><title>User&#45;&gt;Billing</title>
<path fill="none" stroke="#a40d8e" d="M416.469,-159.566C407.267,-146.275 395.595,-129.415 386.127,-115.739"/>
<ellipse fill="none" stroke="#a40d8e" cx="418.749" cy="-162.86" rx="4.00002" ry="4.00002"/>
<polygon fill="#a40d8e" stroke="#a40d8e" points="385.964,-115.504 383.972,-104.721 383.118,-111.393 380.272,-107.282 380.272,-107.282 380.272,-107.282 383.118,-111.393 376.572,-109.844 385.964,-115.504 385.964,-115.504"/>
</g>
<!-- User&#45;&gt;Order -->
<g id="edge2" class="edge"><title>User&#45;&gt;Order</title>
<path fill="none" stroke="#d71bda" d="M432,-156.52C432,-126.6 432,-77.1639 432,-46.4265"/>
<ellipse fill="none" stroke="#d71bda" cx="432" cy="-160.864" rx="4" ry="4"/>
<polygon fill="#d71bda" stroke="#d71bda" points="432,-46.3968 436.5,-36.3967 432,-41.3968 432,-36.3968 432,-36.3968 432,-36.3968 432,-41.3968 427.5,-36.3968 432,-46.3968 432,-46.3968"/>
</g>
<!-- Product -->
<g id="node6" class="node"><title>Product</title>
<ellipse fill="none" stroke="black" cx="498" cy="-90" rx="38.1938" ry="18"/>
<text text-anchor="middle" x="498" y="-86.3" font-family="Times,serif" font-size="14.00">Product</text>
</g>
<!-- User&#45;&gt;Product -->
<g id="edge3" class="edge"><title>User&#45;&gt;Product</title>
<path fill="none" stroke="#867a4d" d="M449.233,-158.239C458.738,-145.134 470.524,-128.883 480.129,-115.641"/>
<polygon fill="#867a4d" stroke="#867a4d" points="449.067,-158.468 439.553,-163.921 446.132,-162.516 443.196,-166.563 443.196,-166.563 443.196,-166.563 446.132,-162.516 446.839,-169.205 449.067,-158.468 449.067,-158.468"/>
<polygon fill="#867a4d" stroke="#867a4d" points="480.208,-115.532 489.722,-110.079 483.143,-111.484 486.079,-107.437 486.079,-107.437 486.079,-107.437 483.143,-111.484 482.436,-104.795 480.208,-115.532 480.208,-115.532"/>
</g>
<!-- Product&#45;&gt;Order -->
<g id="edge5" class="edge"><title>Product&#45;&gt;Order</title>
<path fill="none" stroke="#221939" d="M477.358,-67.1071C469.757,-59.0457 461.134,-49.8999 453.463,-41.7635"/>
<ellipse fill="none" stroke="#221939" cx="480.28" cy="-70.2055" rx="4.00002" ry="4.00002"/>
<polygon fill="#221939" stroke="#221939" points="453.324,-41.6161 449.738,-31.2531 449.894,-37.9781 446.464,-34.3402 446.464,-34.3402 446.464,-34.3402 449.894,-37.9781 443.189,-37.4272 453.324,-41.6161 453.324,-41.6161"/>
</g>
</g>
</svg>
